<svg width="373" height="123" viewBox="0 0 373 123" fill="none" xmlns="http://www.w3.org/2000/svg">
<path d="M66.4 1.87826C64.5 2.87826 62.4 4.37827 61.8 5.07826C60.5 6.67826 60 23.0783 60.3 49.9783L60.5 69.5783L63 70.6783C66.8 72.3783 68.4 72.1783 72.2 69.2783C76.1 66.3783 78.9 66.4783 79.3 69.5783C79.5 70.9783 78.8 72.2783 77.2 73.3783C74.8 74.8783 71.9 80.3783 71.3 84.3783C71.1 85.5783 70.1 86.4783 68.7 86.6783C66.7 86.9783 66.5 86.5783 66.5 82.8783C66.5 79.4783 66.1 78.6783 63.9 77.8783C62.5 77.2783 61 77.0783 60.6 77.2783C59.5 77.9783 60.5 109.778 61.7 113.678C62.9 117.678 68.8 121.878 74.3 122.578C79.5 123.278 87.9 120.478 90.5 117.178C94.7 111.878 94.3 106.578 89.4 101.778C85.8 98.2783 82.5 97.3783 78.4 98.7783C73.6 100.478 65.6 100.178 64.9 98.3783C64 96.1783 66.3 93.8783 69.5 93.8783C76.1 93.8783 84.5 87.4783 84.5 82.4783C84.5 80.1783 87.3 76.8783 89.2 76.8783C89.8 76.8783 90.8 77.4783 91.4 78.2783C92.8 79.8783 91.3 88.0783 89.6 88.6783C87.5 89.3783 88.5 92.6783 91.3 94.4783C94.8 96.7783 96.2 98.4783 98.5 103.578C100.8 108.678 103.2 109.178 106.3 104.978C109.3 100.778 110.8 93.4783 110 85.8783C109.5 79.8783 109.7 78.7783 112.4 73.3783C114.9 68.4783 115.5 66.1783 115.4 60.8783C115.3 52.6783 112.8 45.2783 109.3 43.1783C106.9 41.6783 106.5 41.6783 103.7 43.9783C101.3 45.8783 100.6 47.1783 100.6 50.1783C100.5 54.6783 98.2 60.6783 95.7 62.4783C90.4 66.6783 81.1 65.9783 81.7 61.4783C81.9 59.8783 82.9 59.2783 86.3 58.7783C91.5 58.0783 92.6 57.0783 92.8 52.8783C93 49.8783 92.7 49.5783 87.1 47.4783C80.2 44.8783 76.9 41.4783 75.2 35.1783C73.9 30.1783 74 30.2783 67.3 29.3783C62.6 28.7783 60.4 26.5783 62.5 24.4783C63.1 23.8783 66.4 23.3783 69.8 23.3783C74.9 23.3783 77 22.7783 81.7 20.0783C88.8 16.0783 91.5 15.8783 91.5 19.3783C91.5 21.2783 90.2 22.7783 86.5 25.4783C81 29.3783 80.3 31.6783 83 36.8783C84.9 40.5783 87.3 41.8783 92.2 41.8783C101.5 41.8783 106.7 28.9783 101.5 18.8783C99 14.0783 98.5 13.6783 91.7 12.9783C86.3 12.3783 86 12.2783 83.8 7.77826C82.2 4.77826 80.2 2.67826 77.9 1.57826C73.5 -0.621735 70.9 -0.521744 66.4 1.87826Z" fill="#DB2777"/>
<path d="M36 2.57827C32.6 4.47827 30.6 6.67828 30.5 8.87827C30.4 12.1783 28.6 13.2783 23 13.4783C16.9 13.6783 15.1 14.8783 12.1 20.6783C7.2 30.1783 14.7 44.2783 23.7 42.4783C33.5 40.4783 33.5 40.4783 33.5 43.1783C33.5 46.1783 28.6 48.8783 23.2 48.8783C16.8 48.8783 13.1 57.4783 17.6 61.9783C19.3 63.6783 20.6 63.9783 25.3 63.6783C30.1 63.4783 31 63.6783 31.3 65.1783C32 68.5783 29.6 69.8783 22.9 69.8783C16.9 69.8783 16.4 69.6783 12.4 65.8783C8.3 62.0783 8.3 61.8783 8.7 56.3783C9 53.2783 9.9 50.1783 10.8 49.0783C13.1 46.5783 12.9 45.6783 9.9 43.5783C7.4 41.7783 7.4 41.7783 5.2 44.0783C1 48.4783 0 51.7783 0 61.3783C0 70.4783 0.9 73.9783 4.4 78.1783C5.6 79.5783 5.6 80.4783 4.5 83.7783C3 88.4783 3.9 96.9783 6.4 101.378C9.7 107.178 15.5 107.878 16.9 102.678C18.6 96.4783 30.1 89.4783 34.6 91.9783C37.7 93.5783 36.8 95.6783 31.6 98.2783C25.2 101.578 20.3 107.378 21.1 110.778C22.2 115.478 25.8 119.778 30 121.378C39.7 125.078 48.8 122.078 52.3 113.978C54.2 109.678 54.3 107.278 54.3 73.2783C54.3 53.4783 54 36.6783 53.5 35.9783C52.9 34.9783 52.3 34.8783 50.6 35.8783C45.7 38.4783 29.5 36.2783 29.5 33.0783C29.5 32.5783 28.7 31.3783 27.6 30.2783C25.5 27.9783 23.2 18.7783 24.4 17.5783C24.9 17.0783 26.3 16.8783 27.6 17.0783C29.5 17.2783 30.1 18.2783 30.8 21.5783C32.3 29.5783 41.3 33.4783 48.4 29.2783C51.9 27.1783 53.2 23.9783 54 14.8783C54.6 7.57827 54.5 7.27827 51.9 4.97827C47.1 0.778275 41 -0.121727 36 2.57827Z" fill="#DB2777"/>
<path fill-rule="evenodd" clip-rule="evenodd" d="M143 29V94.5H172C181.167 94.6667 199.7 88.4 200.5 62C201.3 35.6 181.833 29 172 29H143ZM156.5 81.5V41.5H173C178 42.5 187.9 48 187.5 62C187.1 76 177.667 80.8333 173 81.5H156.5Z" fill="#DB2777"/>
<path fill-rule="evenodd" clip-rule="evenodd" d="M205 94.5L229 29H240L263.5 94.5H249L243 78H226.5L220.5 94.5H205ZM231 64.5L235 54L238.5 64.5H231Z" fill="#DB2777"/>
<path fill-rule="evenodd" clip-rule="evenodd" d="M270.5 29V94.5H299.5C308.667 94.6667 327.2 88.4 328 62C328.8 35.6 309.333 29 299.5 29H270.5ZM284 81.5V41.5H300.5C305.5 42.5 315.4 48 315 62C314.6 76 305.167 80.8333 300.5 81.5H284Z" fill="#DB2777"/>
<path d="M330.5 29H373V41.5H359V94.5H345V41.5H330.5V29Z" fill="#DB2777"/>
</svg>
