<svg width="1369" height="1213" viewBox="0 0 1369 1213" fill="none" xmlns="http://www.w3.org/2000/svg">
<path d="M233.991 782.749C234.929 768.799 241.822 756.925 244.83 743.552C246.83 734.657 248.177 725.071 253.19 717.36C236.517 713.371 217.802 717.835 205.215 729.584C197.869 703.675 169.651 685.531 143.03 689.597C116.409 693.664 94.8952 719.406 95.6192 746.326C75.1432 730.074 43.5459 729.829 22.8206 745.761C5.2859 759.243 -3.28237 783.49 1.1579 805.082C5.73923 827.371 30.5979 821.432 48.6459 821.992L129.653 824.508C171.259 825.801 212.869 827.094 254.477 828.387C240.99 817.518 232.789 800.633 233.991 782.749Z" fill="white"/>
<path d="M838.943 188.966C955.274 235.819 1040.15 352.528 1048.88 477.636C1051.52 515.447 1047.29 555.003 1028.05 587.661C1008.82 620.321 972.223 644.515 934.478 641.057C904.949 638.352 879.478 620.082 855.633 602.456C762.233 533.414 668.831 464.371 575.43 395.328C550.937 377.223 525.995 358.663 508.543 333.7C494.182 313.159 478.61 274.656 491.841 249.933C503.147 228.804 539.383 212.588 559.897 202.339C614.559 175.025 676.581 162.539 737.555 166.333C772.262 168.493 806.669 175.967 838.943 188.966Z" fill="#F472B6"/>
<path d="M508.095 1086.37H497.699L497.445 1054.25C492.725 959.051 451.497 919.271 427.333 904.033C398.198 885.663 390.599 884.02 368.039 879.14C361.746 877.78 353.914 876.085 344.253 873.724C339.938 872.671 335.601 871.667 331.262 870.663C312.955 866.428 294.029 862.049 276.603 853.697C251.275 841.556 233.691 822.131 228.362 800.399C222.831 777.844 232.219 754.487 240.503 733.877C241.706 730.883 242.898 727.916 244.034 724.988C246.763 717.943 245.89 709.636 241.754 703.312C240.662 701.641 239.311 700.031 237.882 698.325C235.822 695.868 233.691 693.325 232.006 690.235C227.683 682.304 227.529 672.367 231.607 664.304C233.655 660.252 237.237 656.468 241.455 653.579C238.63 651.384 236.251 648.612 234.554 645.421C229.443 635.821 230.246 626.181 236.603 620.865C246.99 612.177 255.805 604.128 258.47 593.607C259.385 590.001 259.425 587.176 258.531 583.472C248.509 576.755 237.465 569.092 229.539 558.545C219.817 545.611 216.777 529.748 221.603 517.149C226.397 504.639 237.667 496.756 246.723 490.421C254.186 485.203 261.929 480.271 269.415 475.5C290.278 462.209 309.983 449.656 324.829 431.011C336.598 416.227 343.018 398.421 349.817 379.572C352.574 371.924 355.427 364.015 358.653 356.392C374.742 318.368 400.641 285.974 425.687 254.647C453.782 219.506 506.447 186.372 521.919 177.054C601.281 129.253 665.667 127.68 735.655 130.48C816.093 133.694 893.539 159.444 953.73 202.98C995.967 233.531 1031.8 274.711 1057.34 322.068C1082.88 369.427 1097.62 421.985 1099.95 474.06C1102.28 526.137 1092.3 579.8 1071.08 629.251C1049.87 678.7 1017.86 722.916 978.519 757.115C944.82 786.411 924.494 806.657 894.867 840.437C842.834 899.771 831.035 990.559 866.179 1061.22L856.628 1065.97C819.61 991.537 832.037 895.904 886.849 833.405C916.834 799.213 937.41 778.72 971.522 749.065C1009.66 715.913 1040.7 673.027 1061.28 625.045C1081.86 577.063 1091.55 525.019 1089.29 474.537C1087.03 424.057 1072.74 373.085 1047.95 327.132C1023.17 281.18 988.422 241.237 947.478 211.623C888.97 169.303 813.591 144.267 735.227 141.133C652.511 137.827 597.655 143.893 527.422 186.192C512.334 195.279 461.007 227.551 434.018 261.307C409.423 292.069 383.993 323.88 368.475 360.548C365.362 367.906 362.561 375.676 359.85 383.191C353.059 402.023 346.037 421.497 333.173 437.654C317.219 457.693 295.831 471.32 275.146 484.497C267.755 489.205 260.113 494.075 252.837 499.163C243.181 505.916 234.914 512.219 231.563 520.965C227.351 531.964 232.161 544.279 238.065 552.139C245.343 561.82 255.906 568.885 266.122 575.719C267.159 576.412 267.919 577.447 268.273 578.641C270.181 585.107 270.338 590.201 268.811 596.227C265.079 610.951 252.577 621.411 243.447 629.048C240.819 631.244 241.877 636.477 243.97 640.411C246.25 644.695 250.842 647.791 255.67 648.296C258.353 648.577 260.403 650.819 260.446 653.517C260.489 656.215 258.509 658.52 255.834 658.885C250.283 659.641 243.547 664.328 241.126 669.116C238.646 674.02 238.742 680.305 241.371 685.129C242.549 687.288 244.253 689.321 246.057 691.473C247.622 693.341 249.242 695.273 250.681 697.475C256.666 706.627 257.93 718.645 253.979 728.84C252.83 731.811 251.621 734.819 250.399 737.856C242.342 757.905 234.009 778.636 238.722 797.859C243.287 816.476 258.775 833.323 281.213 844.079C297.578 851.921 315.923 856.167 333.666 860.271C338.049 861.284 342.427 862.297 346.785 863.363C356.309 865.691 363.738 867.297 370.294 868.715C393.581 873.751 402.294 875.636 433.022 895.012C460.946 912.619 481.594 940.651 494.395 978.328C502.04 1000.83 506.781 1026.95 508.105 1053.86L508.111 1054.13L508.095 1086.37Z" fill="#E887AF"/>
<path d="M478.555 522.74C466.342 522.74 454.129 520.212 442.787 515.162C420.73 505.339 402.039 485.987 391.506 462.066C390.319 459.37 391.542 456.222 394.237 455.035C396.934 453.847 400.079 455.071 401.269 457.767C410.746 479.292 427.459 496.66 447.125 505.416C466.637 514.106 489.085 514.302 508.713 505.954C511.425 504.802 514.554 506.064 515.707 508.775C516.861 511.486 515.598 514.618 512.887 515.771C501.955 520.419 490.255 522.74 478.555 522.74Z" fill="#E887AF"/>
<path d="M865.307 1041.8C829.273 1041.8 799.955 1071.12 799.955 1107.15C799.955 1143.19 829.273 1172.5 865.307 1172.5C901.343 1172.5 930.661 1143.19 930.661 1107.15C930.661 1071.12 901.343 1041.8 865.307 1041.8ZM865.307 1183.17C823.391 1183.17 789.289 1149.07 789.289 1107.15C789.289 1065.23 823.391 1031.13 865.307 1031.13C907.225 1031.13 941.327 1065.23 941.327 1107.15C941.327 1149.07 907.225 1183.17 865.307 1183.17Z" fill="#E887AF"/>
<path d="M865.307 1068.88C844.205 1068.88 827.037 1086.05 827.037 1107.15C827.037 1128.25 844.205 1145.42 865.307 1145.42C886.409 1145.42 903.577 1128.25 903.577 1107.15C903.577 1086.05 886.409 1068.88 865.307 1068.88ZM865.307 1156.09C838.323 1156.09 816.37 1134.14 816.37 1107.15C816.37 1080.17 838.323 1058.21 865.307 1058.21C892.29 1058.21 914.243 1080.17 914.243 1107.15C914.243 1134.14 892.29 1156.09 865.307 1156.09Z" fill="#E887AF"/>
<path d="M899.973 1107.15C899.973 1088.01 884.453 1072.49 865.307 1072.49C846.162 1072.49 830.641 1088.01 830.641 1107.15C830.641 1126.3 846.162 1141.82 865.307 1141.82C884.453 1141.82 899.973 1126.3 899.973 1107.15Z" fill="#E887AF"/>
<path d="M908.659 978.167C887.855 978.167 866.805 976.447 846.081 974.329C845.915 925.801 862.705 877.112 894.867 840.437C924.494 806.657 944.821 786.411 978.519 757.115C1017.86 722.916 1049.87 678.7 1071.08 629.251C1092.3 579.8 1102.28 526.137 1099.95 474.06C1097.62 421.985 1082.88 369.427 1057.34 322.068C1031.8 274.711 995.967 233.531 953.73 202.98C893.539 159.444 816.093 133.694 735.655 130.48C723.446 129.987 711.41 129.64 699.433 129.64C642.75 129.64 587.437 137.587 521.919 177.054C515.151 181.13 501.265 189.764 485.433 201.129C485.478 199.857 485.654 198.557 485.974 197.226C493.199 167.143 555.471 142.08 580.535 131.92C628.877 112.333 680.991 102.6 733.137 102.6C794.691 102.6 856.283 116.174 911.661 143.08C1013.95 192.802 1093.48 287.286 1125.01 396.559C1152.99 493.493 1144.11 596.828 1132.73 697.073C1127.04 747.205 1120.64 797.887 1102.29 844.885C1083.94 891.883 1052.18 935.516 1007.1 958.176C976.646 973.485 942.989 978.168 908.659 978.167ZM835.457 973.212C833.991 973.055 832.53 972.896 831.069 972.737C762.955 965.333 694.415 957.845 628.693 938.484C562.97 919.124 499.537 887.028 452.846 836.885C505.313 835.093 553.59 802.7 583.627 759.646C613.665 716.591 627.35 664.012 632.721 611.791C637.567 564.643 635.782 516.858 627.851 470.143C625.589 456.81 622.795 442.543 619.394 427.827C698.139 486.035 776.889 544.247 855.633 602.456C879.478 620.082 904.949 638.352 934.478 641.057C936.893 641.279 939.299 641.387 941.701 641.387C976.831 641.387 1010.05 618.232 1028.05 587.661C1047.29 555.003 1051.52 515.447 1048.88 477.636C1040.15 352.528 955.274 235.819 838.943 188.966C806.669 175.967 772.262 168.493 737.555 166.333C730.41 165.888 723.259 165.667 716.098 165.667C662.154 165.667 608.153 178.227 559.897 202.339C545.969 209.297 524.794 219.007 509.094 231.136C500.697 225.559 492.589 219.379 488.387 212.14C505.215 199.867 520.326 190.466 527.422 186.192C587.406 150.067 636.166 140.373 700.653 140.373C711.673 140.373 723.157 140.653 735.227 141.133C813.591 144.267 888.97 169.303 947.478 211.623C988.422 241.237 1023.17 281.18 1047.95 327.132C1072.74 373.085 1087.03 424.057 1089.29 474.538C1091.55 525.019 1081.86 577.063 1061.28 625.046C1040.7 673.027 1009.66 715.913 971.522 749.065C937.41 778.72 916.834 799.213 886.849 833.405C853.241 871.727 835.567 922.501 835.457 973.212Z" fill="#F9A8D4"/>
<path d="M941.7 641.387C939.299 641.387 936.892 641.279 934.478 641.057C904.948 638.352 879.478 620.082 855.632 602.456C776.888 544.247 698.139 486.035 619.394 427.827C604.358 362.755 577.438 288.783 531.848 246.787C526.524 241.883 517.659 236.824 509.094 231.136C524.794 219.007 545.968 209.297 559.896 202.339C608.152 178.227 662.154 165.667 716.098 165.667C723.259 165.667 730.41 165.888 737.555 166.333C772.262 168.493 806.668 175.967 838.943 188.966C955.274 235.819 1040.15 352.528 1048.88 477.636C1051.52 515.447 1047.29 555.003 1028.05 587.661C1010.05 618.232 976.831 641.387 941.7 641.387Z" fill="#EB5799"/>
<path d="M846.08 974.329C842.531 973.967 838.984 973.592 835.456 973.212C835.567 922.501 853.24 871.727 886.848 833.405C916.834 799.213 937.41 778.72 971.522 749.065C1009.66 715.913 1040.7 673.027 1061.28 625.046C1081.86 577.063 1091.55 525.019 1089.29 474.538C1087.03 424.057 1072.74 373.086 1047.95 327.132C1023.17 281.18 988.422 241.237 947.478 211.623C888.97 169.303 813.591 144.267 735.227 141.133C723.156 140.654 711.672 140.373 700.652 140.373C636.166 140.373 587.406 150.067 527.422 186.192C520.326 190.466 505.215 199.867 488.387 212.14C486.403 208.721 485.291 205.065 485.432 201.129C501.264 189.764 515.151 181.13 521.919 177.054C587.436 137.587 642.75 129.64 699.432 129.64C711.41 129.64 723.446 129.987 735.655 130.48C816.092 133.694 893.539 159.444 953.73 202.98C995.967 233.531 1031.8 274.711 1057.34 322.068C1082.88 369.427 1097.62 421.985 1099.95 474.06C1102.28 526.137 1092.3 579.8 1071.08 629.251C1049.87 678.7 1017.86 722.916 978.519 757.115C944.82 786.411 924.494 806.657 894.867 840.437C862.704 877.112 845.915 925.801 846.08 974.329Z" fill="#EC4899"/>
<path d="M48.8672 198.123C38.0445 198.293 26.6685 198.335 17.1605 193.16C4.86451 186.467 -1.82775 171.321 0.436249 157.505C2.69918 143.693 13.2178 131.827 26.2965 126.84C39.3778 121.84 54.5472 123.44 66.9098 130.013C64.4432 113.68 71.6418 96.2534 84.9138 86.4267C98.1858 76.6 116.955 74.7867 131.857 81.9066C146.758 89.04 157.145 104.773 157.833 121.267C171.617 115.587 187.464 114.307 201.536 119.253C215.607 124.187 227.561 135.693 231.618 150.04C235.674 164.389 231.014 181.195 219.234 190.339C208.8 198.436 195.166 199.568 182.433 198.991C169.137 198.388 156.931 196.421 143.389 196.635C111.881 197.131 80.3738 197.627 48.8672 198.123Z" fill="white"/>
<path d="M447.673 201.096L443.821 195.655C446.011 194.104 448.249 192.56 450.471 191.066L454.19 196.599C452.013 198.063 449.821 199.576 447.673 201.096ZM434.965 210.552L430.861 205.299C432.997 203.631 435.158 201.982 437.286 200.399L441.265 205.75C439.178 207.3 437.059 208.916 434.965 210.552ZM422.714 220.598L418.367 215.542C420.423 213.775 422.506 212.027 424.557 210.347L428.781 215.504C426.771 217.151 424.73 218.864 422.714 220.598ZM410.945 231.201L406.366 226.355C408.306 224.523 410.305 222.68 412.306 220.878L416.767 225.831C414.805 227.599 412.845 229.405 410.945 231.201ZM399.675 242.342L394.881 237.71C396.746 235.778 398.658 233.844 400.561 231.966L405.245 236.708C403.381 238.551 401.506 240.446 399.675 242.342ZM388.927 253.987L383.925 249.579C385.695 247.569 387.515 245.552 389.335 243.582L394.234 248.104C392.45 250.036 390.665 252.015 388.927 253.987ZM378.721 266.11L373.525 261.933C375.211 259.835 376.937 257.736 378.655 255.696L383.754 259.991C382.069 261.992 380.375 264.051 378.721 266.11ZM369.077 278.686L363.697 274.75C365.277 272.59 366.905 270.415 368.537 268.286L373.829 272.342C372.226 274.432 370.627 276.566 369.077 278.686ZM360.014 291.686L354.459 287.999C355.946 285.762 357.474 283.515 359.003 281.322L364.471 285.133C362.971 287.285 361.471 289.491 360.014 291.686ZM351.557 305.086L345.841 301.655C347.21 299.371 348.634 297.057 350.073 294.779L355.711 298.336C354.298 300.575 352.901 302.844 351.557 305.086ZM343.718 318.856L337.85 315.692C339.117 313.343 340.434 310.967 341.765 308.628L347.559 311.924C346.253 314.22 344.959 316.552 343.718 318.856ZM336.522 332.971L330.514 330.082C331.682 327.655 332.889 325.22 334.099 322.844L340.039 325.872C338.85 328.203 337.667 330.591 336.522 332.971ZM329.989 347.405L323.853 344.799C324.895 342.348 325.986 339.859 327.098 337.401L333.171 340.15C332.081 342.56 331.011 345.001 329.989 347.405ZM324.139 362.128L317.887 359.812C318.811 357.316 319.786 354.778 320.782 352.271L326.977 354.732C326.001 357.191 325.046 359.679 324.139 362.128ZM318.995 377.11L312.641 375.095C313.453 372.536 314.303 369.955 315.174 367.422L321.478 369.587C320.626 372.07 319.79 374.602 318.995 377.11Z" fill="#E887AF"/>
<path d="M992.259 702.545L987.603 697.773C989.503 695.92 991.393 694.056 993.27 692.181L997.98 696.897C996.085 698.792 994.178 700.673 992.259 702.545ZM980.644 713.644L976.084 708.781C978.022 706.964 979.954 705.137 981.874 703.304L986.478 708.125C984.542 709.973 982.598 711.812 980.644 713.644ZM968.868 724.539L964.371 719.617C966.336 717.823 968.294 716.023 970.247 714.217L974.774 719.113C972.81 720.928 970.842 722.736 968.868 724.539ZM956.994 735.299L952.532 730.344C954.511 728.563 956.488 726.777 958.462 724.989L962.939 729.931C960.959 731.723 958.978 733.512 956.994 735.299ZM945.091 745.997L940.635 741.039L946.588 735.691L951.042 740.652L945.091 745.997ZM933.227 756.705L928.744 751.769C930.722 749.973 932.702 748.184 934.686 746.395L939.15 751.345C937.174 753.129 935.198 754.916 933.227 756.705ZM921.458 767.495L916.924 762.608C918.883 760.789 920.848 758.977 922.82 757.171L927.326 762.084C925.364 763.883 923.408 765.685 921.458 767.495ZM909.863 778.435L905.246 773.625L906.651 772.279C908.12 770.875 909.59 769.48 911.067 768.089L915.636 772.943C914.174 774.321 912.714 775.705 911.26 777.095L909.863 778.435ZM898.507 789.593L893.778 784.896C895.667 782.993 897.568 781.103 899.48 779.225L904.152 783.981C902.259 785.84 900.378 787.711 898.507 789.593ZM887.462 801.036L882.598 796.479C884.432 794.52 886.283 792.576 888.148 790.644L892.943 795.277C891.1 797.184 889.274 799.103 887.462 801.036ZM876.807 812.811L871.784 808.428C873.551 806.404 875.336 804.396 877.142 802.403L882.082 806.88C880.304 808.841 878.546 810.819 876.807 812.811ZM866.62 824.968L861.419 820.796C863.103 818.697 864.811 816.617 866.542 814.555L871.648 818.84C869.95 820.865 868.272 822.908 866.62 824.968ZM856.992 837.547L851.602 833.627C853.152 831.492 854.779 829.313 856.435 827.151L861.73 831.203C860.106 833.323 858.512 835.457 856.992 837.547ZM848.026 850.58L842.432 846.952C843.886 844.712 845.399 842.448 846.927 840.225L852.419 844.005C850.924 846.177 849.447 848.389 848.026 850.58ZM839.826 864.083L834.026 860.796C835.344 858.467 836.726 856.116 838.126 853.809L843.824 857.272C842.456 859.52 841.112 861.812 839.826 864.083ZM832.508 878.055L826.498 875.167C827.658 872.753 828.883 870.313 830.139 867.915L836.046 871.008C834.824 873.339 833.632 875.709 832.508 878.055ZM826.204 892.493L820.002 890.053C820.978 887.571 822.024 885.047 823.115 882.551L829.224 885.217C828.168 887.639 827.152 890.087 826.204 892.493ZM821.002 907.349L814.628 905.392C815.419 902.819 816.274 900.22 817.168 897.668L823.459 899.873C822.594 902.344 821.766 904.859 821.002 907.349ZM816.996 922.552L810.486 921.123C811.066 918.483 811.708 915.821 812.398 913.212L818.843 914.912C818.178 917.433 817.556 920.004 816.996 922.552ZM814.303 938.017L807.691 937.169C808.034 934.497 808.444 931.785 808.911 929.111L815.479 930.259C815.028 932.833 814.632 935.444 814.303 938.017ZM813.046 953.64L806.382 953.428C806.467 950.739 806.622 947.999 806.842 945.28L813.487 945.816C813.276 948.427 813.127 951.059 813.046 953.64ZM806.691 969.76C806.499 967.071 806.375 964.323 806.324 961.593L812.991 961.469C813.039 964.083 813.156 966.712 813.342 969.285L806.691 969.76ZM808.74 985.989C808.251 983.313 807.832 980.592 807.494 977.9L814.108 977.068C814.431 979.639 814.832 982.236 815.298 984.789L808.74 985.989Z" fill="#E887AF"/>
<path d="M360.347 902.783C357.797 901.997 355.25 901.224 352.713 900.457L354.642 894.076C357.19 894.847 359.75 895.621 362.311 896.412L360.347 902.783ZM375.473 907.671C372.97 906.811 370.457 905.98 367.939 905.169L369.983 898.824C372.541 899.647 375.095 900.492 377.637 901.364L375.473 907.671ZM390.266 913.216C387.943 912.256 385.471 911.288 382.923 910.336L385.254 904.089C387.875 905.068 390.417 906.065 392.81 907.055L390.266 913.216ZM404.498 919.828C402.257 918.651 399.893 917.484 397.47 916.363L400.273 910.313C402.794 911.481 405.259 912.696 407.599 913.927L404.498 919.828ZM417.811 927.889C415.746 926.444 413.554 925.019 411.294 923.655L414.739 917.948C417.127 919.389 419.447 920.896 421.634 922.428L417.811 927.889ZM429.755 937.693C427.934 935.932 425.994 934.205 423.987 932.561L428.211 927.404C430.358 929.164 432.438 931.012 434.391 932.901L429.755 937.693ZM439.925 949.316C438.365 947.221 436.731 945.195 435.067 943.291L440.089 938.905C441.865 940.939 443.609 943.101 445.271 945.332L439.925 949.316ZM448.33 962.389C447.05 960.085 445.706 957.835 444.339 955.701L449.951 952.104C451.394 954.355 452.809 956.725 454.158 959.152L448.33 962.389ZM455.151 976.459C454.125 974.029 453.039 971.628 451.925 969.324L457.927 966.421C459.09 968.828 460.223 971.332 461.291 973.865L455.151 976.459ZM460.645 991.193C459.802 988.637 458.927 986.137 458.045 983.759L464.294 981.439C465.206 983.893 466.109 986.472 466.975 989.105L460.645 991.193ZM465.155 1006.35C464.423 1003.65 463.718 1001.15 463.001 998.732L469.391 996.837C470.125 999.311 470.845 1001.85 471.59 1004.61L465.155 1006.35ZM469.066 1021.77C468.443 1019.19 467.811 1016.61 467.162 1014.04L473.625 1012.41C474.281 1015 474.919 1017.61 475.547 1020.21L469.066 1021.77Z" fill="#E887AF"/>
<path d="M1086.41 1004.39C1102.36 1001.57 1119.64 1008.51 1129.22 1021.59C1129.32 999.277 1147.32 978.4 1169.38 975.028C1179.17 973.531 1189.71 975.336 1197.62 981.285C1205.54 987.236 1210.32 997.64 1208.28 1007.33C1216.22 1001.74 1225.2 997.24 1234.85 996.067C1244.49 994.893 1254.89 997.409 1261.82 1004.22C1268.76 1011.03 1271.36 1022.44 1266.62 1030.93C1276.58 1025.51 1287.45 1021.75 1298.64 1019.85C1309.04 1018.08 1320.4 1018.1 1329.3 1023.75C1338.2 1029.4 1343.09 1042.21 1337.26 1050.99C1344.81 1050.16 1352.81 1049.4 1359.68 1052.64C1366.56 1055.88 1371.37 1064.71 1367.61 1071.3C1364 1077.61 1355.36 1078.36 1348.09 1078.35C1322.88 1078.32 1297.66 1078.29 1272.45 1078.27C1209.98 1078.2 1147.51 1078.14 1085.04 1078.07C1077.77 1078.06 1070.26 1078 1063.62 1075.06C1056.18 1071.76 1050.48 1064.79 1048.71 1056.85C1043.65 1034.19 1064.81 1008.19 1086.41 1004.39Z" fill="white"/>
<path d="M1368.85 150.027C1367.37 135.547 1353.44 124.587 1339 122.68C1324.57 120.787 1310.09 126.187 1297.53 133.547C1297.09 114.32 1284.96 95.8134 1267.49 87.7601C1250.02 79.7067 1228.08 82.4933 1213.17 94.64C1210.62 76.2267 1194.75 60.9734 1176.51 57.3201C1158.28 53.6667 1138.71 60.8401 1125.66 74.0801C1112.61 87.3334 1105.82 106.04 1105.24 124.627C1091.44 103.427 1062.24 93.7868 1038.54 102.613C1019.05 109.853 1005.95 128.2 1002.54 148.307C998.517 172.068 1011.35 182.64 1035.14 183.169C1124.04 185.148 1212.96 187.125 1301.86 189.104C1316.57 189.432 1331.81 189.665 1345.36 183.912C1358.92 178.157 1370.36 164.672 1368.85 150.027Z" fill="white"/>
<path d="M884.025 1101.35H871.111V1088.43C871.111 1087.29 870.187 1086.37 869.049 1086.37H861.566C860.426 1086.37 859.503 1087.29 859.503 1088.43V1101.35H846.589C845.451 1101.35 844.527 1102.27 844.527 1103.41V1110.89C844.527 1112.03 845.451 1112.95 846.589 1112.95H859.503V1125.87C859.503 1127.01 860.426 1127.93 861.566 1127.93H869.049C870.187 1127.93 871.111 1127.01 871.111 1125.87V1112.95H884.025C885.165 1112.95 886.086 1112.03 886.086 1110.89V1103.41C886.086 1102.27 885.165 1101.35 884.025 1101.35Z" fill="white"/>
<path d="M1008.5 528.718C1004.13 538.215 997.71 545.98 989.941 551.178C981.578 556.774 971.529 559.244 962.371 557.958C961.69 557.863 961.043 558.052 960.513 558.412C960.081 547.752 955.026 537.252 946.531 529.976L946.397 529.902C953.709 521.527 956.878 509.434 954.027 498.659C953.651 497.235 952.191 496.387 950.767 496.763C949.345 497.139 948.495 498.599 948.871 500.023C951.842 511.252 947.058 524.187 937.495 530.778C927.931 537.37 914.139 537.24 904.705 530.468C903.507 529.61 901.842 529.883 900.983 531.08C900.123 532.278 900.398 533.944 901.595 534.803C904.493 536.882 907.734 538.432 911.146 539.455C920.927 542.387 932.106 540.971 940.521 535.17C941.265 534.658 941.981 534.108 942.675 533.535C942.797 533.703 942.897 533.887 943.062 534.028C951.683 541.415 956.362 553.095 954.981 563.788C953.55 574.868 945.413 584.808 935.195 587.959C924.627 591.216 912.295 586.934 906.511 577.996C905.711 576.76 904.061 576.406 902.823 577.206C901.586 578.007 901.234 579.657 902.033 580.895C905.818 586.74 911.885 590.954 918.671 592.987C922.214 594.05 925.955 594.507 929.669 594.304C929.591 594.682 929.577 595.074 929.678 595.474C932.555 606.914 930.847 619.346 924.997 629.587C919.146 639.827 909.301 647.609 897.986 650.939C888.659 653.684 877.833 653.58 866.678 650.639C857.835 648.305 845.409 643.283 836.389 632.579C828.485 623.203 825.029 610.719 827.37 599.999C827.417 599.783 827.386 599.578 827.381 599.366C834.679 600.05 841.791 599.038 847.995 596.202C861.695 589.934 869.781 574.079 866.018 560.858C865.615 559.44 864.141 558.619 862.725 559.022C861.306 559.426 860.486 560.9 860.889 562.318C863.959 573.11 857.179 586.134 845.777 591.351C835.481 596.06 822.178 595.052 810.189 588.651C799.207 582.788 790.685 573.254 786.805 562.494C782.686 551.067 783.947 538.035 790.097 528.487C790.895 527.247 790.538 525.598 789.298 524.799C788.059 524.002 786.41 524.36 785.614 525.598C783.941 528.195 782.594 531.019 781.559 533.98C781.478 534.107 781.37 534.206 781.31 534.348C775.497 548.34 760.358 558.578 744.497 559.246C729.081 559.894 713.435 552.184 703.665 539.123C694.505 526.876 690.63 509.926 693.302 493.778C693.389 493.26 693.277 492.775 693.085 492.326C693.186 491.911 693.33 491.502 693.414 491.086C693.707 489.642 692.775 488.235 691.333 487.94C689.89 487.647 688.481 488.579 688.187 490.023C686.414 498.746 680.31 506.983 671.859 512.059C664.131 516.7 654.538 518.927 644.115 518.495C627.983 517.827 612.697 510.578 603.227 499.102C593.615 487.451 590.269 471.582 594.393 458.039C596.865 459.428 599.513 460.587 602.318 461.428L602.462 461.471C611.293 464.08 621.57 463.9 632.181 460.947C633.601 460.552 634.43 459.081 634.035 457.661C633.639 456.244 632.171 455.412 630.75 455.807C621.103 458.494 611.845 458.683 603.974 456.356C595.038 453.69 587.723 447.592 584.49 440.007C581.05 431.932 582.726 422.016 588.474 416.427C589.531 415.4 589.555 413.711 588.529 412.655C587.503 411.6 585.813 411.576 584.757 412.603C577.37 419.783 575.242 431.912 579.583 442.098C581.301 446.131 583.995 449.774 587.339 452.882C579.711 459.771 567.841 459.023 559.17 455.955C541.615 449.751 527.902 433.219 525.049 414.82C522.219 396.592 530.115 376.893 544.699 365.607C549.549 369.043 554.941 371.659 560.599 373.355C569.279 375.956 578.573 376.404 587.437 374.367C588.871 374.039 589.769 372.608 589.438 371.171C589.109 369.736 587.679 368.839 586.242 369.17C569.847 372.936 551.81 367.243 540.289 354.666C529.003 342.35 524.606 323.827 529.086 307.476C533.539 291.223 546.33 277.582 562.466 271.876C578.591 266.172 597.326 268.704 611.358 278.482C612.567 279.324 614.23 279.027 615.07 277.82C615.519 277.176 615.622 276.412 615.461 275.701C616.538 275.063 617.081 273.774 616.643 272.552C611.421 257.971 614.111 240.574 623.663 227.143C632.665 214.487 647.313 205.576 663.85 202.695C678.993 200.057 695.874 202.475 711.383 209.505C721.745 214.202 729.861 220.182 735.503 227.28C741.499 234.826 744.606 243.801 744.287 252.268C741.203 252.441 738.139 252.988 735.177 253.928C723.473 257.639 713.982 267.242 710.406 278.988C709.977 280.398 710.771 281.888 712.179 282.316L712.191 282.32C713.598 282.742 715.081 281.948 715.509 280.543C718.579 270.451 726.734 262.201 736.789 259.012C746.843 255.824 758.261 257.866 766.586 264.342C774.911 270.818 779.701 281.384 779.083 291.912C778.998 293.384 780.121 294.644 781.591 294.731C783.062 294.818 784.323 293.695 784.409 292.224C785.126 279.968 779.553 267.671 769.861 260.132C767.578 258.356 765.09 256.878 762.474 255.687C772.338 242.706 787.858 232.98 805.399 228.892C821.677 225.096 840.187 225.829 858.933 231.011C876.183 235.782 890.77 243.356 902.311 253.535C915.174 264.879 923.89 279.484 926.853 294.661C929.967 310.609 926.47 327.163 917.521 339.255C916.979 339.41 916.437 339.548 915.899 339.714C903.295 327.618 883.11 324.722 867.643 332.888C866.341 333.576 865.843 335.19 866.529 336.492C867.218 337.796 868.831 338.292 870.133 337.605C883.545 330.523 901.79 333.227 912.574 343.894C923.357 354.559 926.257 372.776 919.322 386.263C918.649 387.573 919.165 389.182 920.474 389.855C920.622 389.932 920.775 389.993 920.931 390.04C922.137 390.401 923.469 389.863 924.066 388.703C931.293 374.646 929.435 356.84 919.987 344.332C920.206 344.228 920.406 344.095 920.593 343.928C937.871 339.421 956.13 341.252 971.17 349.098C987.718 357.728 999.958 373.973 1003.12 391.489C1006.43 409.843 999.765 429.208 986.145 440.826C985.886 441.044 985.694 441.311 985.543 441.591C972.343 433.787 956.667 430.21 941.27 432.08C939.806 432.256 938.766 433.586 938.945 435.05C939.122 436.51 940.45 437.552 941.911 437.375C964.473 434.634 988.629 445.132 1002.02 463.499C1015.41 481.866 1018.01 508.074 1008.5 528.718ZM826.899 647.171C826.101 648.772 825.302 650.374 824.445 651.938C821.141 657.959 817.567 661.674 813.522 663.294C808.421 665.336 802.057 663.619 799.031 659.386C796.695 656.115 796.185 651.796 795.647 647.224L795.483 645.859C791.614 614.271 774.639 584.02 749.826 564.05C761.297 562.3 771.818 556.407 779.114 547.888C779.013 553.411 779.879 559.011 781.789 564.303C786.109 576.291 795.545 586.882 807.678 593.358C810.953 595.106 814.321 596.49 817.715 597.507C819.23 597.962 820.745 598.319 822.261 598.627L822.158 598.861C819.431 611.351 823.226 625.24 832.309 636.018C832.519 636.267 832.738 636.499 832.953 636.743C830.495 640.03 828.655 643.65 826.899 647.171ZM1006.33 460.356C1001.81 454.159 996.263 448.826 990.039 444.486C1004.78 431.62 1011.97 410.527 1008.37 390.544C1004.92 371.439 991.614 353.745 973.637 344.368C959.114 336.792 941.839 334.431 925.057 337.498C932.445 324.85 935.082 308.968 932.089 293.639C928.901 277.315 919.578 261.652 905.841 249.535C893.685 238.815 878.375 230.851 860.353 225.871C840.753 220.452 821.331 219.7 804.187 223.696C784.878 228.199 767.803 239.146 757.257 253.754C754.765 253.031 752.205 252.564 749.621 252.351C749.95 242.655 746.437 232.461 739.679 223.961C733.505 216.194 724.726 209.695 713.585 204.647C697.11 197.18 679.122 194.62 662.935 197.44C645.025 200.56 629.125 210.259 619.317 224.052C609.311 238.118 606.159 256.175 610.81 271.819C595.878 263.008 577.063 261.055 560.687 266.847C542.93 273.127 528.849 288.156 523.942 306.067C518.989 324.143 523.861 344.634 536.354 358.27C537.637 359.668 539.011 360.968 540.431 362.21C525.009 374.771 516.727 395.972 519.778 415.638C522.923 435.92 538.039 454.144 557.391 460.984C558.061 461.222 558.746 461.447 559.447 461.656C568.562 464.388 580.119 464.695 588.719 458.595C585.03 473.332 588.873 490.086 599.114 502.496C606.31 511.216 616.521 517.718 627.957 521.144C633.077 522.679 638.445 523.598 643.895 523.824C655.361 524.299 665.982 521.812 674.607 516.632C679.602 513.632 683.87 509.638 687.135 505.094C687.315 518.719 691.553 531.835 699.394 542.316C706.674 552.048 716.923 559.092 728.082 562.438C732.767 563.842 737.614 564.548 742.466 564.571C742.643 564.992 742.893 565.388 743.285 565.682C768.786 584.711 786.319 614.926 790.189 646.507L790.349 647.848C790.917 652.654 791.559 658.102 794.69 662.486C796.847 665.503 800.049 667.642 803.618 668.712C807.438 669.858 811.678 669.778 815.505 668.247C820.745 666.148 825.198 661.652 829.122 654.502C830.011 652.879 830.842 651.216 831.673 649.552C833.261 646.367 834.799 643.352 836.721 640.632C845.057 648.406 854.894 652.718 862.777 655.082C863.649 655.342 864.499 655.58 865.317 655.796C877.414 658.986 889.231 659.076 899.493 656.056C912.117 652.34 923.101 643.659 929.629 632.232C936.157 620.807 938.061 606.935 934.85 594.174C934.799 593.971 934.683 593.81 934.591 593.632C935.322 593.467 936.049 593.278 936.767 593.055C949.109 589.25 958.554 577.766 960.271 564.472C960.345 563.899 960.389 563.323 960.434 562.748C960.674 562.922 960.939 563.066 961.233 563.154C961.359 563.192 961.494 563.222 961.63 563.24C972.067 564.706 983.467 561.926 992.906 555.611C1001.49 549.867 1008.56 541.339 1013.35 530.948C1023.8 508.256 1021.05 480.547 1006.33 460.356Z" fill="white"/>
<path d="M725.753 346.677C730.465 356.864 728.71 369.977 721.486 378.568C720.538 379.695 720.682 381.378 721.81 382.326C722.098 382.568 722.421 382.739 722.759 382.84C723.747 383.136 724.862 382.841 725.567 382.001C734.213 371.723 736.233 356.628 730.594 344.439C724.957 332.248 712.146 324.013 698.717 323.944C685.286 323.876 672.391 331.981 666.629 344.112C665.998 345.444 666.565 347.035 667.895 347.665C669.225 348.3 670.817 347.731 671.449 346.4C676.263 336.261 687.465 329.221 698.689 329.277C709.911 329.336 721.042 336.489 725.753 346.677Z" fill="white"/>
<path d="M865.807 438.757C864.357 438.504 862.974 439.475 862.722 440.927C862.469 442.377 863.435 443.757 864.891 444.012C879.634 446.583 892.811 457.621 897.669 471.48C902.666 485.733 898.969 502.349 888.469 512.827C877.841 523.435 860.93 526.809 847.341 521.035C845.979 520.459 844.418 521.092 843.842 522.447C843.266 523.803 843.898 525.368 845.253 525.944C846.586 526.511 847.946 526.999 849.327 527.415C864.05 531.827 881.15 527.667 892.237 516.603C904.158 504.707 908.363 485.863 902.702 469.715C897.141 453.847 882.659 441.697 865.807 438.757Z" fill="white"/>
<path d="M844.247 485.484C843.542 484.192 841.923 483.713 840.629 484.419C830.451 489.964 817.589 490.383 807.074 485.519C796.557 480.653 788.551 470.583 786.186 459.236C784.01 448.795 786.653 437.443 793.087 428.946C797.637 433.135 803.126 436.284 809.051 438.059C812.162 438.991 815.391 439.55 818.657 439.687C830.195 440.174 844.223 433.947 847.497 421.451C847.87 420.027 847.029 418.568 845.591 418.195C844.167 417.823 842.71 418.675 842.337 420.1C839.771 429.895 828.339 434.756 818.883 434.357C807.619 433.883 796.901 427.656 790.913 418.107C784.922 408.556 783.982 396.196 788.457 385.851C789.042 384.499 788.421 382.929 787.069 382.345C785.713 381.76 784.146 382.383 783.562 383.735C778.399 395.668 779.485 409.925 786.394 420.941C787.29 422.371 788.311 423.712 789.382 425.007C782.83 433.283 779.53 444.088 780.21 454.623L781.133 461.023C784.014 473.7 793.031 484.899 804.835 490.36C806.59 491.171 808.401 491.855 810.253 492.41C821.081 495.655 833.247 494.514 843.179 489.104C844.474 488.399 844.951 486.779 844.247 485.484Z" fill="white"/>
<path d="M725.871 457.243C726.261 455.279 724.425 453.591 722.511 454.177C716.245 456.099 709.369 456.303 703.062 454.683C695.278 452.683 688.069 447.829 683.289 441.368C681.018 438.3 678.486 433.659 679.322 428.981C679.579 427.531 678.614 426.145 677.165 425.888C675.714 425.628 674.329 426.595 674.069 428.045C672.901 434.593 676.107 440.629 679.002 444.541C680.23 446.201 681.579 447.759 683.034 449.204C688.183 454.323 694.651 458.029 701.734 459.848C709.097 461.739 716.858 461.517 724.073 459.279C725.001 458.992 725.683 458.193 725.871 457.243Z" fill="white"/>
<path d="M776.549 338.295C777.494 339.424 779.177 339.575 780.305 338.629C793.477 327.607 815.029 327.462 828.35 338.304C841.67 349.148 845.899 370.283 837.775 385.416C837.079 386.715 837.567 388.331 838.865 389.027C839.026 389.114 839.193 389.183 839.362 389.233C840.551 389.589 841.866 389.075 842.475 387.939C851.902 370.373 847.178 346.755 831.718 334.168C816.259 321.583 792.173 321.744 776.882 334.539C775.753 335.483 775.603 337.165 776.549 338.295Z" fill="white"/>
<path d="M196.162 354.385H166.613V324.835H161.202V354.385H131.651V359.795H161.202V389.345H166.613V359.795H196.162V354.385Z" fill="#F472B6"/>
<path d="M997.695 51.64H946.054V7.62939e-06H936.601V51.64H884.958V61.1066H936.601V112.747H946.054V61.1066H997.695V51.64Z" fill="#F472B6"/>
<path d="M1054.6 1169.11H1017.58V1132.09H1010.8V1169.11H973.767V1175.89H1010.8V1212.92H1017.58V1175.89H1054.6V1169.11Z" fill="#F472B6"/>
<path d="M1280.18 792.543H1230.3V742.668H1221.17V792.543H1171.3V801.674H1221.17V851.547H1230.3V801.674H1280.18V792.543Z" fill="#F472B6"/>
</svg>
